<svg version="1.0" xmlns="http://www.w3.org/2000/svg"
 width="28" height="22" viewBox="0 0 512.000000 512.000000"
 preserveAspectRatio="xMidYMid meet">
<g transform="translate(0.000000,512.000000) scale(0.100000,-0.100000)"
fill="red" stroke="none">
<path d="M213 5090 c-163 -65 -246 -249 -189 -420 17 -53 63 -100 1044 -1082
l1027 -1028 -1011 -1012 c-556 -557 -1021 -1029 -1032 -1049 -12 -20 -29 -64
-38 -98 -37 -148 38 -301 185 -373 36 -18 63 -23 126 -23 154 0 58 -85 1207
1064 l1028 1026 1028 -1026 c1149 -1149 1053 -1064 1207 -1064 67 0 89 4 137
28 97 48 168 150 182 262 8 58 -13 149 -46 204 -11 20 -476 492 -1032 1049
l-1011 1012 1026 1028 c982 982 1028 1029 1045 1082 58 173 -28 358 -194 420
-79 30 -185 24 -262 -14 -45 -23 -232 -205 -1067 -1039 l-1013 -1012 -1012
1012 c-835 833 -1023 1016 -1068 1039 -75 38 -191 44 -267 14z"/>
</g>
</svg>

